:FULLY-SPECIFIED
:FORCE-ALL-JOINTS-BE-3DOF
:DEGREES
645
root 5.53903 16.2208 -2.0847 11.21 14.8098 -0.806168
lfemur -15.1909 26.0083 -27.8978
ltibia 42.0714 0 0
lfoot -35.1081 20.7011 0
ltoes 8.46949 0 0
rfemur -56.4215 -24.1772 33.0778
rtibia 69.1043 0 0
rfoot -8.00884 2.7889 0
rtoes 0.0979639 0 0
lowerback 0.960976 -4.99238 -4.82157
upperback -1.07912 -6.72979 0.399174
thorax -1.05849 -3.32025 3.14696
lowerneck -9.73695 -6.71992 -0.32531
upperneck 6.13779 -9.34075 4.27738
head 3.74391 -4.40194 0.79855
lclavicle 9.17332e-015 6.82888e-015 0
lhumerus -28.0203 -62.495 108.216
lradius 70.7375 0 0
lwrist 23.5756 0 0
lhand -7.16693 1.49278 0
lfingers 7.12502 0 0
lthumb 18.7087 30.5929 0
rclavicle 9.17332e-015 6.82888e-015 0
rhumerus -24.9526 -6.91232 -66.1141
rradius 79.5788 0 0
rwrist -32.1617 0 0
rhand -28.311 -39.119 0
rfingers 7.12502 0 0
rthumb -1.68623 -789.092 0
646
root 5.53583 16.2051 -2.03 11.5248 13.7555 -0.617411
lfemur -15.1212 26.0299 -28.0511
ltibia 42.1603 0 0
lfoot -35.1384 20.522 0
ltoes 8.00229 0 0
rfemur -56.5028 -24.3672 33.2709
rtibia 69.1638 0 0
rfoot -8.56449 1.9362 0
rtoes 0.252235 0 0
lowerback 0.88235 -5.03791 -4.83388
upperback -1.10813 -6.78781 0.37577
thorax -1.04056 -3.34924 3.12424
lowerneck -9.76464 -6.65421 -0.332698
upperneck 5.85222 -9.24082 4.30163
head 3.66306 -4.35863 0.820375
lclavicle 9.50658e-015 7.39016e-015 0
lhumerus -28.1975 -63.0904 108.658
lradius 71.141 0 0
lwrist 23.685 0 0
lhand -7.05817 1.54609 0
lfingers 7.12502 0 0
lthumb 18.8134 30.6365 0
rclavicle 9.50658e-015 7.39016e-015 0
rhumerus -26.4147 -7.21099 -65.9341
rradius 78.4654 0 0
rwrist -31.3214 0 0
rhand -28.3108 -39.5826 0
rfingers 7.12502 0 0
rthumb -1.68605 -789.556 0
647
root 5.53263 16.1894 -1.9753 11.8396 12.7012 -0.428653
lfemur -15.0515 26.0514 -28.2044
ltibia 42.2492 0 0
lfoot -35.1687 20.343 0
ltoes 7.5351 0 0
rfemur -56.5842 -24.5571 33.4639
rtibia 69.2233 0 0
rfoot -9.12015 1.0835 0
rtoes 0.406507 0 0
lowerback 0.803725 -5.08343 -4.84619
upperback -1.13715 -6.84583 0.352365
thorax -1.02264 -3.37822 3.10152
lowerneck -9.79234 -6.5885 -0.340086
upperneck 5.56665 -9.14089 4.32588
head 3.58221 -4.31532 0.842201
lclavicle 9.83984e-015 7.95143e-015 0
lhumerus -28.3747 -63.6858 109.1
lradius 71.5445 0 0
lwrist 23.7944 0 0
lhand -6.94941 1.59941 0
lfingers 7.12502 0 0
lthumb 18.918 30.6802 0
rclavicle 9.83984e-015 7.95143e-015 0
rhumerus -27.8769 -7.50966 -65.754
rradius 77.3521 0 0
rwrist -30.4812 0 0
rhand -28.3106 -40.0462 0
rfingers 7.12502 0 0
rthumb -1.68586 -790.019 0
648
root 5.52943 16.1737 -1.9206 12.1544 11.6469 -0.239896
lfemur -14.9819 26.0729 -28.3577
ltibia 42.3381 0 0
lfoot -35.1989 20.1639 0
ltoes 7.06791 0 0
rfemur -56.6656 -24.7471 33.657
rtibia 69.2828 0 0
rfoot -9.67581 0.2308 0
rtoes 0.560778 0 0
lowerback 0.7251 -5.12896 -4.8585
upperback -1.16616 -6.90386 0.328961
thorax -1.00471 -3.40721 3.0788
lowerneck -9.82003 -6.52279 -0.347474
upperneck 5.28109 -9.04095 4.35012
head 3.50136 -4.27201 0.864026
lclavicle 1.01731e-014 8.51271e-015 0
lhumerus -28.5519 -64.2812 109.542
lradius 71.9481 0 0
lwrist 23.9039 0 0
lhand -6.84065 1.65272 0
lfingers 7.12502 0 0
lthumb 19.0226 30.7238 0
rclavicle 1.01731e-014 8.51271e-015 0
rhumerus -29.339 -7.80834 -65.574
rradius 76.2387 0 0
rwrist -29.641 0 0
rhand -28.3104 -40.5099 0
rfingers 7.12502 0 0
rthumb -1.68568 -790.483 0
649
root 5.52622 16.1581 -1.8659 12.4692 10.5926 -0.0511388
lfemur -14.9122 26.0945 -28.511
ltibia 42.427 0 0
lfoot -35.2292 19.9848 0
ltoes 6.60072 0 0
rfemur -56.7469 -24.9371 33.8501
rtibia 69.3422 0 0
rfoot -10.2315 -0.6219 0
rtoes 0.715049 0 0
lowerback 0.646475 -5.17448 -4.87081
upperback -1.19517 -6.96188 0.305556
thorax -0.986789 -3.4362 3.05608
lowerneck -9.84772 -6.45707 -0.354863
upperneck 4.99552 -8.94102 4.37437
head 3.42051 -4.22871 0.885851
lclavicle 1.05064e-014 9.07398e-015 0
lhumerus -28.7291 -64.8766 109.984
lradius 72.3516 0 0
lwrist 24.0133 0 0
lhand -6.73188 1.70604 0
lfingers 7.12502 0 0
lthumb 19.1273 30.7675 0
rclavicle 1.05064e-014 9.07398e-015 0
rhumerus -30.8011 -8.10701 -65.3939
rradius 75.1254 0 0
rwrist -28.8007 0 0
rhand -28.3102 -40.9735 0
rfingers 7.12502 0 0
rthumb -1.6855 -790.947 0
650
root 5.52302 16.1424 -1.8112 12.7839 9.53833 0.137618
lfemur -14.8425 26.116 -28.6643
ltibia 42.5159 0 0
lfoot -35.2595 19.8057 0
ltoes 6.13353 0 0
rfemur -56.8283 -25.127 34.0432
rtibia 69.4017 0 0
rfoot -10.7871 -1.4746 0
rtoes 0.869321 0 0
lowerback 0.56785 -5.22001 -4.88312
upperback -1.22418 -7.0199 0.282152
thorax -0.968864 -3.46519 3.03337
lowerneck -9.87541 -6.39136 -0.362251
upperneck 4.70995 -8.84109 4.39862
head 3.33965 -4.1854 0.907676
lclavicle 1.08396e-014 9.63526e-015 0
lhumerus -28.9063 -65.472 110.427
lradius 72.7552 0 0
lwrist 24.1227 0 0
lhand -6.62312 1.75936 0
lfingers 7.12502 0 0
lthumb 19.2319 30.8111 0
rclavicle 1.08396e-014 9.63526e-015 0
rhumerus -32.2632 -8.40568 -65.2139
rradius 74.012 0 0
rwrist -27.9605 0 0
rhand -28.31 -41.4371 0
rfingers 7.12502 0 0
rthumb -1.68532 -791.41 0
